<svg xmlns="http://www.w3.org/2000/svg" xmlns:xlink="http://www.w3.org/1999/xlink" width="400" zoomAndPan="magnify" viewBox="0 0 300 280.499991" height="374" preserveAspectRatio="xMidYMid meet" version="1.0"><defs><g/></defs><g fill="#000000" fill-opacity="1"><g transform="translate(82.374282, 266.126935)"><g><path d="M 168.703125 0 L 131.015625 0 L 110.453125 -87.734375 C 107.941406 -98.078125 105.828125 -108.878906 104.109375 -120.140625 C 102.378906 -110.742188 100.976562 -103.585938 99.90625 -98.671875 C 98.832031 -93.753906 91.1875 -60.863281 76.96875 0 L 39.296875 0 L 0.21875 -151.6875 L 32.40625 -151.6875 L 54.375 -53.71875 L 59.3125 -30.03125 C 61.320312 -40.007812 63.28125 -49.535156 65.1875 -58.609375 C 67.09375 -67.691406 74.253906 -98.71875 86.671875 -151.6875 L 122.1875 -151.6875 L 141.359375 -70.953125 C 142.859375 -64.921875 145.40625 -51.28125 149 -30.03125 L 151.6875 -42.53125 L 157.390625 -67.28125 L 175.703125 -151.6875 L 207.890625 -151.6875 Z M 168.703125 0 "/></g></g></g><g fill="#ffcc00" fill-opacity="1"><g transform="translate(-5.37218, 176.490053)"><g><path d="M 164.46875 -47.703125 C 164.46875 -32.515625 158.769531 -20.765625 147.375 -12.453125 C 135.988281 -4.148438 120.171875 0 99.921875 0 L 16.25 0 L 16.25 -167.203125 L 92.796875 -167.203125 C 113.210938 -167.203125 128.660156 -163.660156 139.140625 -156.578125 C 149.617188 -149.503906 154.859375 -139.039062 154.859375 -125.1875 C 154.859375 -115.695312 152.226562 -107.6875 146.96875 -101.15625 C 141.707031 -94.632812 133.695312 -90.226562 122.9375 -87.9375 C 136.46875 -86.351562 146.769531 -82.097656 153.84375 -75.171875 C 160.925781 -68.253906 164.46875 -59.097656 164.46875 -47.703125 Z M 119.609375 -120.453125 C 119.609375 -127.960938 117.21875 -133.300781 112.4375 -136.46875 C 107.65625 -139.632812 100.554688 -141.21875 91.140625 -141.21875 L 51.265625 -141.21875 L 51.265625 -99.796875 L 91.375 -99.796875 C 101.257812 -99.796875 108.4375 -101.515625 112.90625 -104.953125 C 117.375 -108.398438 119.609375 -113.566406 119.609375 -120.453125 Z M 129.34375 -50.4375 C 129.34375 -66.101562 118.109375 -73.9375 95.640625 -73.9375 L 51.265625 -73.9375 L 51.265625 -25.984375 L 96.953125 -25.984375 C 108.179688 -25.984375 116.382812 -28.019531 121.5625 -32.09375 C 126.75 -36.175781 129.34375 -42.289062 129.34375 -50.4375 Z M 129.34375 -50.4375 "/></g></g></g></svg>