<svg xmlns="http://www.w3.org/2000/svg" xmlns:xlink="http://www.w3.org/1999/xlink" width="400" zoomAndPan="magnify" viewBox="0 0 300 280.499991" height="374" preserveAspectRatio="xMidYMid meet" version="1.0"><defs><g/></defs><g fill="#000000" fill-opacity="1"><g transform="translate(83.582448, 221.562151)"><g><path d="M 142.265625 0 L 110.484375 0 L 93.15625 -74 C 91.03125 -82.707031 89.242188 -91.816406 87.796875 -101.328125 C 86.335938 -93.390625 85.15625 -87.347656 84.25 -83.203125 C 83.34375 -79.054688 76.898438 -51.320312 64.921875 0 L 33.140625 0 L 0.1875 -127.921875 L 27.328125 -127.921875 L 45.84375 -45.296875 L 50.03125 -25.328125 C 51.71875 -33.742188 53.363281 -41.78125 54.96875 -49.4375 C 56.570312 -57.09375 62.609375 -83.253906 73.078125 -127.921875 L 103.046875 -127.921875 L 119.203125 -59.828125 C 120.472656 -54.742188 122.625 -43.242188 125.65625 -25.328125 L 127.921875 -35.859375 L 132.734375 -56.75 L 148.171875 -127.921875 L 175.3125 -127.921875 Z M 142.265625 0 "/></g></g></g><g fill="#ff914d" fill-opacity="1"><g transform="translate(9.58699, 145.972517)"><g><path d="M 138.6875 -40.234375 C 138.6875 -27.421875 133.882812 -17.507812 124.28125 -10.5 C 114.675781 -3.5 101.332031 0 84.25 0 L 13.703125 0 L 13.703125 -141 L 78.25 -141 C 95.457031 -141 108.484375 -138.007812 117.328125 -132.03125 C 126.171875 -126.0625 130.59375 -117.242188 130.59375 -105.578125 C 130.59375 -97.566406 128.375 -90.804688 123.9375 -85.296875 C 119.5 -79.796875 112.742188 -76.082031 103.671875 -74.15625 C 115.078125 -72.8125 123.765625 -69.222656 129.734375 -63.390625 C 135.703125 -57.554688 138.6875 -49.835938 138.6875 -40.234375 Z M 100.875 -101.5625 C 100.875 -107.90625 98.851562 -112.410156 94.8125 -115.078125 C 90.78125 -117.742188 84.796875 -119.078125 76.859375 -119.078125 L 43.234375 -119.078125 L 43.234375 -84.15625 L 77.046875 -84.15625 C 85.390625 -84.15625 91.445312 -85.601562 95.21875 -88.5 C 98.988281 -91.40625 100.875 -95.757812 100.875 -101.5625 Z M 109.078125 -42.53125 C 109.078125 -55.738281 99.601562 -62.34375 80.65625 -62.34375 L 43.234375 -62.34375 L 43.234375 -21.921875 L 81.75 -21.921875 C 91.226562 -21.921875 98.148438 -23.632812 102.515625 -27.0625 C 106.890625 -30.5 109.078125 -35.65625 109.078125 -42.53125 Z M 109.078125 -42.53125 "/></g></g></g><g fill="#ff914d" fill-opacity="1"><g transform="translate(24.237288, 267.966506)"><g><path d="M 13.59375 -4.109375 C 15.101562 -4.109375 16.632812 -4.640625 18.1875 -5.703125 L 20.65625 -1.6875 C 19.5625 -1.007812 18.382812 -0.46875 17.125 -0.0625 C 15.863281 0.332031 14.65625 0.53125 13.5 0.53125 C 11.144531 0.53125 9.101562 0.0625 7.375 -0.875 C 5.65625 -1.8125 4.332031 -3.097656 3.40625 -4.734375 C 2.488281 -6.378906 2.03125 -8.269531 2.03125 -10.40625 C 2.03125 -12.40625 2.546875 -14.242188 3.578125 -15.921875 C 4.609375 -17.597656 6.007812 -18.925781 7.78125 -19.90625 C 9.5625 -20.882812 11.5 -21.375 13.59375 -21.375 C 16.363281 -21.375 18.664062 -20.5625 20.5 -18.9375 C 22.34375 -17.3125 23.570312 -15.015625 24.1875 -12.046875 L 8.421875 -6.71875 C 8.960938 -5.882812 9.6875 -5.238281 10.59375 -4.78125 C 11.5 -4.332031 12.5 -4.109375 13.59375 -4.109375 Z M 13.15625 -17.125 C 11.445312 -17.125 10.050781 -16.523438 8.96875 -15.328125 C 7.894531 -14.140625 7.359375 -12.59375 7.359375 -10.6875 C 7.359375 -10.332031 7.375 -10.0625 7.40625 -9.875 L 18.140625 -13.6875 C 17.722656 -14.6875 17.109375 -15.507812 16.296875 -16.15625 C 15.492188 -16.800781 14.445312 -17.125 13.15625 -17.125 Z M 13.15625 -17.125 "/></g></g></g><g fill="#ff914d" fill-opacity="1"><g transform="translate(50.012359, 267.966506)"><g><path d="M 17.078125 -21.328125 C 18.984375 -21.328125 20.570312 -20.753906 21.84375 -19.609375 C 23.113281 -18.472656 23.765625 -17 23.796875 -15.1875 L 23.796875 0 L 18.375 0 L 18.375 -13.25 C 18.3125 -14.3125 18 -15.148438 17.4375 -15.765625 C 16.875 -16.378906 16.03125 -16.703125 14.90625 -16.734375 C 13.226562 -16.734375 11.847656 -16.015625 10.765625 -14.578125 C 9.679688 -13.148438 9.140625 -11.320312 9.140625 -9.09375 L 9.140625 0 L 3.71875 0 L 3.71875 -20.46875 L 8.609375 -20.46875 L 9 -16.828125 C 9.738281 -18.253906 10.804688 -19.359375 12.203125 -20.140625 C 13.609375 -20.929688 15.234375 -21.328125 17.078125 -21.328125 Z M 17.078125 -21.328125 "/></g></g></g><g fill="#ff914d" fill-opacity="1"><g transform="translate(77.528344, 267.966506)"><g><path d="M 25.875 -20.46875 L 25.875 0.09375 C 25.875 2 25.363281 3.71875 24.34375 5.25 C 23.332031 6.78125 21.914062 7.988281 20.09375 8.875 C 18.269531 9.757812 16.21875 10.203125 13.9375 10.203125 C 11.707031 10.203125 9.847656 9.851562 8.359375 9.15625 C 6.878906 8.46875 5.382812 7.460938 3.875 6.140625 L 7.0625 2.421875 C 8.09375 3.390625 9.140625 4.140625 10.203125 4.671875 C 11.265625 5.203125 12.472656 5.46875 13.828125 5.46875 C 15.828125 5.46875 17.425781 4.972656 18.625 3.984375 C 19.820312 3.003906 20.4375 1.675781 20.46875 0 L 20.46875 -3.4375 C 19.75 -2.238281 18.6875 -1.273438 17.28125 -0.546875 C 15.882812 0.171875 14.253906 0.53125 12.390625 0.53125 C 10.515625 0.53125 8.785156 0.0546875 7.203125 -0.890625 C 5.628906 -1.847656 4.375 -3.15625 3.4375 -4.8125 C 2.5 -6.46875 2.03125 -8.316406 2.03125 -10.359375 C 2.03125 -12.421875 2.519531 -14.296875 3.5 -15.984375 C 4.488281 -17.679688 5.796875 -19.003906 7.421875 -19.953125 C 9.054688 -20.898438 10.789062 -21.375 12.625 -21.375 C 14.332031 -21.375 15.882812 -21.078125 17.28125 -20.484375 C 18.6875 -19.890625 19.75 -19.109375 20.46875 -18.140625 L 20.890625 -20.46875 Z M 13.984375 -3.921875 C 15.554688 -3.921875 16.914062 -4.304688 18.0625 -5.078125 C 19.207031 -5.847656 20.007812 -6.894531 20.46875 -8.21875 L 20.46875 -12.671875 C 20.007812 -13.960938 19.195312 -14.992188 18.03125 -15.765625 C 16.875 -16.546875 15.523438 -16.9375 13.984375 -16.9375 C 12.140625 -16.9375 10.597656 -16.328125 9.359375 -15.109375 C 8.117188 -13.898438 7.5 -12.363281 7.5 -10.5 C 7.5 -9.269531 7.785156 -8.15625 8.359375 -7.15625 C 8.941406 -6.15625 9.722656 -5.363281 10.703125 -4.78125 C 11.691406 -4.207031 12.785156 -3.921875 13.984375 -3.921875 Z M 13.984375 -3.921875 "/></g></g></g><g fill="#ff914d" fill-opacity="1"><g transform="translate(107.12375, 267.966506)"><g><path d="M 13.59375 -4.109375 C 15.101562 -4.109375 16.632812 -4.640625 18.1875 -5.703125 L 20.65625 -1.6875 C 19.5625 -1.007812 18.382812 -0.46875 17.125 -0.0625 C 15.863281 0.332031 14.65625 0.53125 13.5 0.53125 C 11.144531 0.53125 9.101562 0.0625 7.375 -0.875 C 5.65625 -1.8125 4.332031 -3.097656 3.40625 -4.734375 C 2.488281 -6.378906 2.03125 -8.269531 2.03125 -10.40625 C 2.03125 -12.40625 2.546875 -14.242188 3.578125 -15.921875 C 4.609375 -17.597656 6.007812 -18.925781 7.78125 -19.90625 C 9.5625 -20.882812 11.5 -21.375 13.59375 -21.375 C 16.363281 -21.375 18.664062 -20.5625 20.5 -18.9375 C 22.34375 -17.3125 23.570312 -15.015625 24.1875 -12.046875 L 8.421875 -6.71875 C 8.960938 -5.882812 9.6875 -5.238281 10.59375 -4.78125 C 11.5 -4.332031 12.5 -4.109375 13.59375 -4.109375 Z M 13.15625 -17.125 C 11.445312 -17.125 10.050781 -16.523438 8.96875 -15.328125 C 7.894531 -14.140625 7.359375 -12.59375 7.359375 -10.6875 C 7.359375 -10.332031 7.375 -10.0625 7.40625 -9.875 L 18.140625 -13.6875 C 17.722656 -14.6875 17.109375 -15.507812 16.296875 -16.15625 C 15.492188 -16.800781 14.445312 -17.125 13.15625 -17.125 Z M 13.15625 -17.125 "/></g></g></g><g fill="#ff914d" fill-opacity="1"><g transform="translate(132.898822, 267.966506)"><g><path d="M 17.078125 -21.328125 C 18.984375 -21.328125 20.570312 -20.753906 21.84375 -19.609375 C 23.113281 -18.472656 23.765625 -17 23.796875 -15.1875 L 23.796875 0 L 18.375 0 L 18.375 -13.25 C 18.3125 -14.3125 18 -15.148438 17.4375 -15.765625 C 16.875 -16.378906 16.03125 -16.703125 14.90625 -16.734375 C 13.226562 -16.734375 11.847656 -16.015625 10.765625 -14.578125 C 9.679688 -13.148438 9.140625 -11.320312 9.140625 -9.09375 L 9.140625 0 L 3.71875 0 L 3.71875 -20.46875 L 8.609375 -20.46875 L 9 -16.828125 C 9.738281 -18.253906 10.804688 -19.359375 12.203125 -20.140625 C 13.609375 -20.929688 15.234375 -21.328125 17.078125 -21.328125 Z M 17.078125 -21.328125 "/></g></g></g><g fill="#ff914d" fill-opacity="1"><g transform="translate(160.414807, 267.966506)"><g><path d="M 17.078125 -21.328125 C 18.984375 -21.328125 20.570312 -20.753906 21.84375 -19.609375 C 23.113281 -18.472656 23.765625 -17 23.796875 -15.1875 L 23.796875 0 L 18.375 0 L 18.375 -13.25 C 18.3125 -14.3125 18 -15.148438 17.4375 -15.765625 C 16.875 -16.378906 16.03125 -16.703125 14.90625 -16.734375 C 13.226562 -16.734375 11.847656 -16.007812 10.765625 -14.5625 C 9.679688 -13.113281 9.140625 -11.289062 9.140625 -9.09375 L 9.140625 0 L 3.71875 0 L 3.71875 -37.734375 L 9.046875 -37.734375 L 9.046875 -16.984375 C 9.816406 -18.304688 10.882812 -19.359375 12.25 -20.140625 C 13.625 -20.929688 15.234375 -21.328125 17.078125 -21.328125 Z M 17.078125 -21.328125 "/></g></g></g><g fill="#ff914d" fill-opacity="1"><g transform="translate(187.930791, 267.966506)"><g><path d="M 25.15625 -20.46875 L 25.15625 0 L 19.734375 0 L 19.734375 -2.953125 C 18.992188 -2.078125 17.992188 -1.273438 16.734375 -0.546875 C 15.472656 0.171875 14.003906 0.53125 12.328125 0.53125 C 10.367188 0.53125 8.613281 0.117188 7.0625 -0.703125 C 5.507812 -1.523438 4.28125 -2.738281 3.375 -4.34375 C 2.476562 -5.957031 2.03125 -7.910156 2.03125 -10.203125 C 2.03125 -12.429688 2.5 -14.390625 3.4375 -16.078125 C 4.375 -17.773438 5.625 -19.082031 7.1875 -20 C 8.75 -20.914062 10.460938 -21.375 12.328125 -21.375 C 15.648438 -21.375 18.132812 -20.148438 19.78125 -17.703125 L 20.171875 -20.46875 Z M 13.828125 -3.921875 C 15.316406 -3.921875 16.566406 -4.296875 17.578125 -5.046875 C 18.597656 -5.804688 19.316406 -6.878906 19.734375 -8.265625 L 19.734375 -12.71875 C 19.347656 -13.976562 18.597656 -14.992188 17.484375 -15.765625 C 16.367188 -16.546875 15.085938 -16.9375 13.640625 -16.9375 C 11.929688 -16.9375 10.476562 -16.328125 9.28125 -15.109375 C 8.09375 -13.898438 7.5 -12.363281 7.5 -10.5 C 7.5 -9.269531 7.785156 -8.15625 8.359375 -7.15625 C 8.941406 -6.15625 9.71875 -5.363281 10.6875 -4.78125 C 11.65625 -4.207031 12.703125 -3.921875 13.828125 -3.921875 Z M 13.828125 -3.921875 "/></g></g></g><g fill="#ff914d" fill-opacity="1"><g transform="translate(216.849165, 267.966506)"><g><path d="M 9 -15.71875 C 9.539062 -16.8125 10.3125 -17.796875 11.3125 -18.671875 C 12.3125 -19.546875 13.335938 -20.210938 14.390625 -20.671875 C 15.441406 -21.140625 16.320312 -21.375 17.03125 -21.375 L 16.78125 -15.96875 C 15.300781 -16.09375 13.976562 -15.820312 12.8125 -15.15625 C 11.65625 -14.5 10.753906 -13.597656 10.109375 -12.453125 C 9.460938 -11.304688 9.140625 -10.085938 9.140625 -8.796875 L 9.140625 0 L 3.71875 0 L 3.71875 -20.46875 L 8.609375 -20.46875 Z M 9 -15.71875 "/></g></g></g><g fill="#ff914d" fill-opacity="1"><g transform="translate(235.708976, 267.966506)"><g><path d="M 9.140625 -20.46875 L 9.140625 0 L 3.71875 0 L 3.71875 -20.46875 Z M 3.484375 -27.765625 C 3.484375 -28.578125 3.800781 -29.265625 4.4375 -29.828125 C 5.082031 -30.390625 5.8125 -30.671875 6.625 -30.671875 C 7.394531 -30.671875 8.09375 -30.390625 8.71875 -29.828125 C 9.351562 -29.265625 9.671875 -28.578125 9.671875 -27.765625 C 9.671875 -26.960938 9.351562 -26.285156 8.71875 -25.734375 C 8.09375 -25.191406 7.394531 -24.921875 6.625 -24.921875 C 5.8125 -24.921875 5.082031 -25.191406 4.4375 -25.734375 C 3.800781 -26.285156 3.484375 -26.960938 3.484375 -27.765625 Z M 3.484375 -27.765625 "/></g></g></g><g fill="#ff914d" fill-opacity="1"><g transform="translate(248.572332, 267.966506)"><g><path d="M 25.15625 -20.46875 L 25.15625 0 L 19.734375 0 L 19.734375 -2.953125 C 18.992188 -2.078125 17.992188 -1.273438 16.734375 -0.546875 C 15.472656 0.171875 14.003906 0.53125 12.328125 0.53125 C 10.367188 0.53125 8.613281 0.117188 7.0625 -0.703125 C 5.507812 -1.523438 4.28125 -2.738281 3.375 -4.34375 C 2.476562 -5.957031 2.03125 -7.910156 2.03125 -10.203125 C 2.03125 -12.429688 2.5 -14.390625 3.4375 -16.078125 C 4.375 -17.773438 5.625 -19.082031 7.1875 -20 C 8.75 -20.914062 10.460938 -21.375 12.328125 -21.375 C 15.648438 -21.375 18.132812 -20.148438 19.78125 -17.703125 L 20.171875 -20.46875 Z M 13.828125 -3.921875 C 15.316406 -3.921875 16.566406 -4.296875 17.578125 -5.046875 C 18.597656 -5.804688 19.316406 -6.878906 19.734375 -8.265625 L 19.734375 -12.71875 C 19.347656 -13.976562 18.597656 -14.992188 17.484375 -15.765625 C 16.367188 -16.546875 15.085938 -16.9375 13.640625 -16.9375 C 11.929688 -16.9375 10.476562 -16.328125 9.28125 -15.109375 C 8.09375 -13.898438 7.5 -12.363281 7.5 -10.5 C 7.5 -9.269531 7.785156 -8.15625 8.359375 -7.15625 C 8.941406 -6.15625 9.71875 -5.363281 10.6875 -4.78125 C 11.65625 -4.207031 12.703125 -3.921875 13.828125 -3.921875 Z M 13.828125 -3.921875 "/></g></g></g></svg>